<svg id="Capa_1" enable-background="new 0 0 511.99 511.99" height="512" viewBox="0 0 511.99 511.99" width="512" xmlns="http://www.w3.org/2000/svg"><g><g><path clip-rule="evenodd" d="m404.402 146.016c-12.32 118.612-106.201 227.08-215.048 248.515-4.322.853-8.938 1.264-13.584 1.617-1.764-2.411.853 36.724-41.104 49.809 4.175 8.174 11.496 14.437 20.582 16.495 227.427 35.695 398.93-92.091 327.365-344.957-5.792.706-33.96-3.675-41.869-4.587l-35.812 11.467c0 7.351.176 14.879-.53 21.641z" fill="#fde588" fill-rule="evenodd"/></g><g><path clip-rule="evenodd" d="m462.09 119.318c49.866 224.287-100.321 341.488-304.755 321.699-5.675 3.117-13.055 5.028-22.669 4.94 4.175 8.174 11.496 14.437 20.582 16.495 227.427 35.695 398.93-92.091 327.365-344.957-.441.029-.853.088-1.294.118z" fill="#fdd76f" fill-rule="evenodd"/></g><g><path clip-rule="evenodd" d="m402.521 126.757c.265-.706.588-1.47.882-2.235l-1.97-3.058-.412 3.264c-48.514 57.424-147.07 105.116-235.63 95.737-40.164-4.263-60.51-16.701-93.882-35.842-6.968-3.999-13.937-8.439-21.081-11.056-3.587 2.058-5.028 47.074-40.663 44.281 1.323 3.264 3.205 6.322 5.704 8.997 25.492 30.403 52.307 54.749 79.768 73.126 128.87 43.958 261.622-49.368 307.284-173.214z" fill="#fde588" fill-rule="evenodd"/></g><g><path clip-rule="evenodd" d="m404.402 146.016c.706-6.763.529-14.29.529-21.641l-.941-1.558-.588 1.705c-.294.764-.588 1.529-.882 2.235-45.485 110.233-173.679 187.974-284.143 177.624-7.439-.706-15.348-2.882-23.14-4.41-2.764-.559-5.498-1-8.203-1.294.764-1.264-7.498 47.839-34.959 42.517 2.205 7.792 7.145 14.584 14.319 18.612 28.256 17.789 56.07 31.167 83.091 40.4 161.624 15.819 244.95-50.897 254.917-254.19z" fill="#fde588" fill-rule="evenodd"/></g><g><path clip-rule="evenodd" d="m189.354 394.531c108.847-21.435 202.729-129.903 215.048-248.515.706-6.763.529-14.29.529-21.641-5.439 106.293-173.561 249.956-276.705 257.425-6.321.47-12.761.794-18.7 1.97 13.466 6.469 26.815 11.938 39.958 16.436 7.821-2.999 17.171-3.411 26.286-4.058 4.646-.352 9.262-.764 13.584-1.617z" fill="#fdd76f" fill-rule="evenodd"/></g><g><path clip-rule="evenodd" d="m118.377 304.381c110.464 10.35 238.659-67.392 284.144-177.624.294-.706.588-1.47.882-2.235-25.845 28.991-124.93 169.274-320.838 150.926-7.439-.706-15.348-2.882-23.14-4.41-1.852-1.235-3.705-2.529-5.557-3.822 13.554 12.467 27.374 23.375 41.369 32.755 7.792 1.529 15.701 3.705 23.14 4.41z" fill="#fdd76f" fill-rule="evenodd"/></g><g><path clip-rule="evenodd" d="m50.428 173.567c-10.408-3.822-21.14-3.705-32.46 7.468-10.144 10.027-13.025 24.875-8.203 36.813 43.221 7.704 41.692-39.224 40.663-44.281z" fill="#ce9875" fill-rule="evenodd"/></g><g><path clip-rule="evenodd" d="m87.034 298.677c-12.496-1.323-24.11 1.117-32.254 16.76-4.322 8.262-5.028 17.554-2.705 25.757 34.753 13.173 43.133-35.813 34.959-42.517z" fill="#ce9875" fill-rule="evenodd"/></g><g><path clip-rule="evenodd" d="m149.484 400.206c-8.615 3.264-15.407 9.674-17.994 22.993-1.558 8.056-.265 16.054 3.175 22.758 44.162.412 41.134-41.253 41.104-49.809-9.114.647-18.464 1.059-26.285 4.058z" fill="#ce9875" fill-rule="evenodd"/></g><g><path clip-rule="evenodd" d="m490.316 56.219-84.943-12.408c-9.027-1.323-17.494 4.969-18.817 13.996l-7.145 48.78c-1.294 9.027 4.94 19.612 14.025 18.789l7.586-.647 2.382-.206 1.529-.147 57.158-5.057 19.229-1.705c.441-.029.853-.088 1.294-.118 8.585-1.088 16.259-5.293 17.524-13.878l4.175-28.58c1.321-9.027-4.971-17.496-13.997-18.819z" fill="#ce9875" fill-rule="evenodd"/></g><g><path clip-rule="evenodd" d="m462.148 71.685-4.91 33.608c-.559 3.764-2.146 6.822-4.469 9.203-3.764 3.94-9.409 6.145-15.495 7.027l24.816-2.205 19.229-1.705c.441-.029.853-.088 1.294-.118 8.585-1.088 16.259-5.293 17.524-13.878l4.175-28.58c1.323-9.027-4.969-17.495-13.996-18.818l-42.486-6.204c9.438 2.5 15.759 11.791 14.318 21.67z" fill="#c6865c" fill-rule="evenodd"/></g><g><path d="m428.846 242.663c-4.025-.964-8.076 1.521-9.04 5.549-13.394 55.969-38.403 94.743-78.708 122.026-15.502 10.497-33.698 19.445-54.083 26.596-3.909 1.371-5.966 5.651-4.595 9.56 1.083 3.088 3.98 5.02 7.077 5.02.823 0 1.662-.137 2.482-.425 21.603-7.578 40.958-17.109 57.527-28.329 22.522-15.245 40.409-33.651 54.681-56.27 13.37-21.188 23.25-45.617 30.207-74.688.965-4.028-1.519-8.075-5.548-9.039z"/><path d="m507.213 58.264c-3.846-5.174-9.461-8.535-15.813-9.466l-84.94-12.408c-6.348-.932-12.69.674-17.86 4.519-5.173 3.847-8.535 9.462-9.466 15.812l-7.148 48.802c-1.092 7.622 1.457 15.758 6.654 21.232 1.859 1.958 3.966 3.464 6.229 4.503-38.117 38.61-97.172 69.071-154.909 79.174-4.081.714-6.809 4.601-6.095 8.681.714 4.079 4.6 6.805 8.68 6.095 52.634-9.209 106.411-34.616 146.027-67.815-53.453 88.002-162.483 148.625-259.497 139.522-4.68-.438-9.682-1.547-14.978-2.722-1.901-.422-3.876-.86-5.908-1.273-25.684-17.37-50.466-39.931-73.742-67.095 10.168-1.274 16.905-5.806 21.121-10.125 8.508-8.718 11.525-20.866 12.392-30.231 1.897 1.051 3.874 2.194 5.954 3.412 1.288.754 2.574 1.508 3.864 2.249l3.773 2.167c31.825 18.282 52.849 30.36 93.042 34.626 10.355 1.107 21.085 1.467 31.888 1.067 4.139-.153 7.371-3.633 7.218-7.772s-3.63-7.322-7.772-7.218c-10.087.374-20.093.04-29.745-.992-37.053-3.933-55.913-14.768-87.159-32.718l-3.777-2.169c-1.249-.718-2.499-1.45-3.75-2.183-5.223-3.06-11.093-6.492-17.402-8.914-.719-.405-1.504-.693-2.328-.845-12.008-4.03-25.476-3.904-39.071 9.524-12.345 12.205-15.787 30.274-9.884 44.936.051.127.103.253.161.377 1.621 3.903 3.901 7.56 6.866 10.787 19.586 23.343 40.283 43.545 61.747 60.292-8.843 2.168-17.157 7.787-23.454 19.872-4.733 9.069-5.895 19.129-3.99 28.351-.172 1.835.344 3.648 1.402 5.106 2.977 8.644 8.793 16.159 17.008 20.825 23.515 14.792 47.246 26.861 70.735 36.006-4.211 4.607-7.471 10.883-9.159 19.512-1.888 9.713-.314 19.362 3.812 27.494.06.122.122.242.188.36 5.182 9.973 14.225 17.605 25.466 20.145.162.037.326.068.49.094 25.445 3.996 50.288 5.996 74.313 5.996 17.881 0 35.31-1.108 52.188-3.327 39.559-5.198 75.312-16.385 106.265-33.248 3.638-1.981 4.98-6.536 2.998-10.174s-6.537-4.981-10.174-2.998c-59.589 32.464-136.698 42.48-223 28.974-2.619-.621-5.036-1.712-7.202-3.167 8.129-1.906 14.936-5.574 20.315-10.998 11.5-11.595 13.311-27.989 13.514-37.923 2.531-.275 5.047-.621 7.502-1.107 54.279-10.688 106.82-42.746 147.944-90.267 41.034-47.416 67-105.954 73.114-164.828.524-5.016.593-10.328.588-15.569l64.569-5.703c33.104 122.813 9.028 222.669-68.087 281.634-3.291 2.517-3.918 7.224-1.402 10.514 1.477 1.931 3.707 2.944 5.963 2.944 1.589 0 3.19-.503 4.55-1.542 40.143-30.695 67.048-71.657 79.969-121.749 13.176-51.083 11.097-109.713-6.155-174.364 8.771-3.221 14.439-9.649 15.701-18.258l4.175-28.576c.931-6.346-.673-12.69-4.518-17.86zm-491.73 152.787c-1.775-8.384.89-17.891 7.755-24.679 6.914-6.83 13.116-8.535 20.042-7.092-.047 6.611-1.406 18.912-8.626 26.122-4.53 4.525-10.833 6.381-19.171 5.649zm42.971 124.277c-.69-5.388.225-11.152 2.977-16.425 5.292-10.156 11.823-13.226 20.842-13.02.714 5.077-.669 16.802-7.349 24.478-4.291 4.929-9.71 6.561-16.47 4.967zm100.684 95.028c-4.585 4.622-11.164 7.295-19.567 7.943-1.316-4.251-1.638-8.94-.721-13.661 3.141-16.065 12.817-18.972 29.398-20.419-.324 7.783-1.96 18.929-9.11 26.137zm28.76-43.182c-4.617.913-9.733 1.273-15.15 1.653-7.181.505-15.415 1.09-23.099 3.489-26.181-9.161-52.834-22.219-79.26-38.857-.107-.068-.217-.133-.328-.195-1.318-.739-2.529-1.604-3.641-2.569 9.852-1.019 18.341-6.656 24.117-16.503 4.414-7.525 7.036-17.546 6.867-26.107 1.12.239 2.267.49 3.444.751 5.513 1.224 11.214 2.488 16.828 3.014 6.893.646 13.859.965 20.896.965 49.535-.002 102.11-15.873 150.191-45.65 45.261-28.03 82.153-65.783 106.376-108.327-17.435 109.607-106.12 208.422-207.241 228.336zm308.992-313.221-4.175 28.577c-.878 5.996-8.719 7.32-12.056 7.612l-87.9 7.764c-.418.04-1.691.152-3.24-1.479-2.017-2.125-3.121-5.733-2.688-8.754l7.145-48.778c.349-2.382 1.618-4.494 3.574-5.949 1.596-1.187 3.481-1.811 5.417-1.811.438 0 .877.032 1.317.097h.004l84.939 12.408c2.382.349 4.494 1.618 5.948 3.574 1.457 1.958 2.066 4.349 1.715 6.739z"/></g></g></svg>